<mxfile host="app.diagrams.net" agent="Mozilla/5.0 (Windows NT 10.0; Win64; x64) AppleWebKit/537.36 (KHTML, like Gecko) Chrome/135.0.0.0 Safari/537.36" version="26.1.2">
  <diagram name="Pagina-1" id="6siZWVk3VozBAIrh01aZ">
    <mxGraphModel dx="909" dy="531" grid="1" gridSize="10" guides="1" tooltips="1" connect="1" arrows="1" fold="1" page="1" pageScale="1" pageWidth="827" pageHeight="1169" math="0" shadow="0">
      <root>
        <mxCell id="0" />
        <mxCell id="1" parent="0" />
        <mxCell id="KiTWwbMZWOuyHS0gHmwx-3" value="user" style="ellipse;whiteSpace=wrap;html=1;" vertex="1" parent="1">
          <mxGeometry x="260" y="260" width="80" height="80" as="geometry" />
        </mxCell>
        <mxCell id="KiTWwbMZWOuyHS0gHmwx-4" value="tasks&amp;nbsp;" style="ellipse;whiteSpace=wrap;html=1;" vertex="1" parent="1">
          <mxGeometry x="630" y="430" width="80" height="80" as="geometry" />
        </mxCell>
        <mxCell id="KiTWwbMZWOuyHS0gHmwx-5" value="hideout" style="ellipse;whiteSpace=wrap;html=1;" vertex="1" parent="1">
          <mxGeometry x="450" y="390" width="80" height="80" as="geometry" />
        </mxCell>
        <mxCell id="KiTWwbMZWOuyHS0gHmwx-6" value="items" style="ellipse;whiteSpace=wrap;html=1;" vertex="1" parent="1">
          <mxGeometry x="374" y="530" width="80" height="80" as="geometry" />
        </mxCell>
        <mxCell id="KiTWwbMZWOuyHS0gHmwx-7" value="" style="endArrow=classic;html=1;rounded=0;exitX=0.663;exitY=0.933;exitDx=0;exitDy=0;exitPerimeter=0;" edge="1" parent="1" source="KiTWwbMZWOuyHS0gHmwx-8" target="KiTWwbMZWOuyHS0gHmwx-6">
          <mxGeometry width="50" height="50" relative="1" as="geometry">
            <mxPoint x="280" y="420" as="sourcePoint" />
            <mxPoint x="330" y="370" as="targetPoint" />
          </mxGeometry>
        </mxCell>
        <mxCell id="KiTWwbMZWOuyHS0gHmwx-9" value="" style="endArrow=classic;html=1;rounded=0;" edge="1" parent="1" source="KiTWwbMZWOuyHS0gHmwx-10" target="KiTWwbMZWOuyHS0gHmwx-4">
          <mxGeometry width="50" height="50" relative="1" as="geometry">
            <mxPoint x="381.72" y="280" as="sourcePoint" />
            <mxPoint x="431.72" y="230" as="targetPoint" />
          </mxGeometry>
        </mxCell>
        <mxCell id="KiTWwbMZWOuyHS0gHmwx-11" value="" style="endArrow=classic;html=1;rounded=0;exitX=0.888;exitY=0.9;exitDx=0;exitDy=0;exitPerimeter=0;" edge="1" parent="1" source="KiTWwbMZWOuyHS0gHmwx-12" target="KiTWwbMZWOuyHS0gHmwx-5">
          <mxGeometry width="50" height="50" relative="1" as="geometry">
            <mxPoint x="390" y="320" as="sourcePoint" />
            <mxPoint x="440" y="270" as="targetPoint" />
          </mxGeometry>
        </mxCell>
        <mxCell id="KiTWwbMZWOuyHS0gHmwx-13" value="" style="endArrow=classic;html=1;rounded=0;exitX=1.031;exitY=0.588;exitDx=0;exitDy=0;exitPerimeter=0;" edge="1" parent="1" source="KiTWwbMZWOuyHS0gHmwx-3" target="KiTWwbMZWOuyHS0gHmwx-12">
          <mxGeometry width="50" height="50" relative="1" as="geometry">
            <mxPoint x="342" y="307" as="sourcePoint" />
            <mxPoint x="525" y="410" as="targetPoint" />
          </mxGeometry>
        </mxCell>
        <mxCell id="KiTWwbMZWOuyHS0gHmwx-12" value="has" style="text;html=1;align=center;verticalAlign=middle;resizable=0;points=[];autosize=1;strokeColor=none;fillColor=none;" vertex="1" parent="1">
          <mxGeometry x="374" y="330" width="40" height="30" as="geometry" />
        </mxCell>
        <mxCell id="KiTWwbMZWOuyHS0gHmwx-14" value="" style="endArrow=classic;html=1;rounded=0;exitX=0.5;exitY=1;exitDx=0;exitDy=0;" edge="1" parent="1" source="KiTWwbMZWOuyHS0gHmwx-3" target="KiTWwbMZWOuyHS0gHmwx-8">
          <mxGeometry width="50" height="50" relative="1" as="geometry">
            <mxPoint x="300" y="340" as="sourcePoint" />
            <mxPoint x="330" y="461" as="targetPoint" />
          </mxGeometry>
        </mxCell>
        <mxCell id="KiTWwbMZWOuyHS0gHmwx-8" value="has" style="text;html=1;align=center;verticalAlign=middle;resizable=0;points=[];autosize=1;strokeColor=none;fillColor=none;" vertex="1" parent="1">
          <mxGeometry x="320" y="440" width="40" height="30" as="geometry" />
        </mxCell>
        <mxCell id="KiTWwbMZWOuyHS0gHmwx-15" value="" style="endArrow=classic;html=1;rounded=0;exitX=1;exitY=0;exitDx=0;exitDy=0;" edge="1" parent="1" target="KiTWwbMZWOuyHS0gHmwx-10">
          <mxGeometry width="50" height="50" relative="1" as="geometry">
            <mxPoint x="330.00427124746193" y="271.7157287525381" as="sourcePoint" />
            <mxPoint x="484.72" y="206" as="targetPoint" />
          </mxGeometry>
        </mxCell>
        <mxCell id="KiTWwbMZWOuyHS0gHmwx-10" value="has" style="text;html=1;align=center;verticalAlign=middle;resizable=0;points=[];autosize=1;strokeColor=none;fillColor=none;" vertex="1" parent="1">
          <mxGeometry x="500" y="270" width="40" height="30" as="geometry" />
        </mxCell>
        <mxCell id="KiTWwbMZWOuyHS0gHmwx-16" value="" style="endArrow=classic;html=1;rounded=0;exitX=0.35;exitY=0.956;exitDx=0;exitDy=0;exitPerimeter=0;entryX=0.75;entryY=0.056;entryDx=0;entryDy=0;entryPerimeter=0;" edge="1" parent="1" source="KiTWwbMZWOuyHS0gHmwx-17" target="KiTWwbMZWOuyHS0gHmwx-6">
          <mxGeometry width="50" height="50" relative="1" as="geometry">
            <mxPoint x="470" y="550" as="sourcePoint" />
            <mxPoint x="520" y="500" as="targetPoint" />
          </mxGeometry>
        </mxCell>
        <mxCell id="KiTWwbMZWOuyHS0gHmwx-18" value="" style="endArrow=classic;html=1;rounded=0;exitX=0.35;exitY=0.956;exitDx=0;exitDy=0;exitPerimeter=0;entryX=0.75;entryY=0.056;entryDx=0;entryDy=0;entryPerimeter=0;" edge="1" parent="1" source="KiTWwbMZWOuyHS0gHmwx-5" target="KiTWwbMZWOuyHS0gHmwx-17">
          <mxGeometry width="50" height="50" relative="1" as="geometry">
            <mxPoint x="478" y="466" as="sourcePoint" />
            <mxPoint x="434" y="534" as="targetPoint" />
          </mxGeometry>
        </mxCell>
        <mxCell id="KiTWwbMZWOuyHS0gHmwx-17" value="needs" style="text;html=1;align=center;verticalAlign=middle;resizable=0;points=[];autosize=1;strokeColor=none;fillColor=none;" vertex="1" parent="1">
          <mxGeometry x="430" y="480" width="60" height="30" as="geometry" />
        </mxCell>
        <mxCell id="KiTWwbMZWOuyHS0gHmwx-19" value="" style="endArrow=classic;html=1;rounded=0;exitX=0;exitY=1;exitDx=0;exitDy=0;entryX=0.9;entryY=0.269;entryDx=0;entryDy=0;entryPerimeter=0;" edge="1" parent="1" source="KiTWwbMZWOuyHS0gHmwx-21" target="KiTWwbMZWOuyHS0gHmwx-6">
          <mxGeometry width="50" height="50" relative="1" as="geometry">
            <mxPoint x="540" y="570" as="sourcePoint" />
            <mxPoint x="590" y="520" as="targetPoint" />
          </mxGeometry>
        </mxCell>
        <mxCell id="KiTWwbMZWOuyHS0gHmwx-20" value="" style="endArrow=classic;html=1;rounded=0;exitX=0;exitY=1;exitDx=0;exitDy=0;entryX=0.9;entryY=0.269;entryDx=0;entryDy=0;entryPerimeter=0;" edge="1" parent="1" source="KiTWwbMZWOuyHS0gHmwx-4" target="KiTWwbMZWOuyHS0gHmwx-21">
          <mxGeometry width="50" height="50" relative="1" as="geometry">
            <mxPoint x="582" y="498" as="sourcePoint" />
            <mxPoint x="446" y="552" as="targetPoint" />
          </mxGeometry>
        </mxCell>
        <mxCell id="KiTWwbMZWOuyHS0gHmwx-21" value="needs" style="text;html=1;align=center;verticalAlign=middle;whiteSpace=wrap;rounded=0;" vertex="1" parent="1">
          <mxGeometry x="490" y="510" width="60" height="30" as="geometry" />
        </mxCell>
        <mxCell id="KiTWwbMZWOuyHS0gHmwx-22" value="name" style="text;html=1;align=center;verticalAlign=middle;whiteSpace=wrap;rounded=0;" vertex="1" parent="1">
          <mxGeometry x="200" y="310" width="60" height="30" as="geometry" />
        </mxCell>
        <mxCell id="KiTWwbMZWOuyHS0gHmwx-23" value="level" style="text;html=1;align=center;verticalAlign=middle;resizable=0;points=[];autosize=1;strokeColor=none;fillColor=none;" vertex="1" parent="1">
          <mxGeometry x="205" y="258" width="50" height="30" as="geometry" />
        </mxCell>
        <mxCell id="KiTWwbMZWOuyHS0gHmwx-24" value="faction" style="text;html=1;align=center;verticalAlign=middle;resizable=0;points=[];autosize=1;strokeColor=none;fillColor=none;" vertex="1" parent="1">
          <mxGeometry x="250" y="228" width="60" height="30" as="geometry" />
        </mxCell>
        <mxCell id="KiTWwbMZWOuyHS0gHmwx-25" value="name" style="text;html=1;align=center;verticalAlign=middle;resizable=0;points=[];autosize=1;strokeColor=none;fillColor=none;" vertex="1" parent="1">
          <mxGeometry x="445" y="358" width="50" height="30" as="geometry" />
        </mxCell>
        <mxCell id="KiTWwbMZWOuyHS0gHmwx-26" value="level" style="text;html=1;align=center;verticalAlign=middle;resizable=0;points=[];autosize=1;strokeColor=none;fillColor=none;" vertex="1" parent="1">
          <mxGeometry x="500" y="370" width="50" height="30" as="geometry" />
        </mxCell>
        <mxCell id="KiTWwbMZWOuyHS0gHmwx-27" value="name" style="text;html=1;align=center;verticalAlign=middle;resizable=0;points=[];autosize=1;strokeColor=none;fillColor=none;" vertex="1" parent="1">
          <mxGeometry x="635" y="398" width="50" height="30" as="geometry" />
        </mxCell>
        <mxCell id="KiTWwbMZWOuyHS0gHmwx-28" value="requirements" style="text;html=1;align=center;verticalAlign=middle;resizable=0;points=[];autosize=1;strokeColor=none;fillColor=none;" vertex="1" parent="1">
          <mxGeometry x="675" y="408" width="90" height="30" as="geometry" />
        </mxCell>
        <mxCell id="KiTWwbMZWOuyHS0gHmwx-29" value="name" style="text;html=1;align=center;verticalAlign=middle;resizable=0;points=[];autosize=1;strokeColor=none;fillColor=none;" vertex="1" parent="1">
          <mxGeometry x="325" y="578" width="50" height="30" as="geometry" />
        </mxCell>
        <mxCell id="KiTWwbMZWOuyHS0gHmwx-32" value="" style="whiteSpace=wrap;html=1;fillColor=none;" vertex="1" parent="1">
          <mxGeometry x="170" y="220" width="600" height="420" as="geometry" />
        </mxCell>
        <mxCell id="KiTWwbMZWOuyHS0gHmwx-33" value="must have" style="text;html=1;align=center;verticalAlign=middle;resizable=0;points=[];autosize=1;strokeColor=none;fillColor=none;" vertex="1" parent="1">
          <mxGeometry x="170" y="198" width="80" height="30" as="geometry" />
        </mxCell>
        <mxCell id="KiTWwbMZWOuyHS0gHmwx-34" value="traders" style="ellipse;whiteSpace=wrap;html=1;" vertex="1" parent="1">
          <mxGeometry x="900" y="415" width="80" height="80" as="geometry" />
        </mxCell>
        <mxCell id="KiTWwbMZWOuyHS0gHmwx-35" value="ammo" style="ellipse;whiteSpace=wrap;html=1;" vertex="1" parent="1">
          <mxGeometry x="1060" y="530" width="80" height="80" as="geometry" />
        </mxCell>
        <mxCell id="KiTWwbMZWOuyHS0gHmwx-36" value="maps" style="ellipse;whiteSpace=wrap;html=1;" vertex="1" parent="1">
          <mxGeometry x="885" y="250" width="80" height="80" as="geometry" />
        </mxCell>
        <mxCell id="KiTWwbMZWOuyHS0gHmwx-37" value="crafts" style="ellipse;whiteSpace=wrap;html=1;" vertex="1" parent="1">
          <mxGeometry x="875" y="540" width="80" height="80" as="geometry" />
        </mxCell>
        <mxCell id="KiTWwbMZWOuyHS0gHmwx-39" value="" style="endArrow=classic;html=1;rounded=0;exitX=1;exitY=0.5;exitDx=0;exitDy=0;" edge="1" parent="1" source="KiTWwbMZWOuyHS0gHmwx-40" target="KiTWwbMZWOuyHS0gHmwx-34">
          <mxGeometry width="50" height="50" relative="1" as="geometry">
            <mxPoint x="760" y="490" as="sourcePoint" />
            <mxPoint x="810" y="440" as="targetPoint" />
          </mxGeometry>
        </mxCell>
        <mxCell id="KiTWwbMZWOuyHS0gHmwx-41" value="" style="endArrow=classic;html=1;rounded=0;exitX=1;exitY=0.5;exitDx=0;exitDy=0;" edge="1" parent="1" source="KiTWwbMZWOuyHS0gHmwx-4" target="KiTWwbMZWOuyHS0gHmwx-40">
          <mxGeometry width="50" height="50" relative="1" as="geometry">
            <mxPoint x="710" y="470" as="sourcePoint" />
            <mxPoint x="900" y="458" as="targetPoint" />
          </mxGeometry>
        </mxCell>
        <mxCell id="KiTWwbMZWOuyHS0gHmwx-40" value="given by" style="text;html=1;align=center;verticalAlign=middle;resizable=0;points=[];autosize=1;strokeColor=none;fillColor=none;" vertex="1" parent="1">
          <mxGeometry x="765" y="455" width="70" height="30" as="geometry" />
        </mxCell>
        <mxCell id="KiTWwbMZWOuyHS0gHmwx-42" value="name" style="text;html=1;align=center;verticalAlign=middle;resizable=0;points=[];autosize=1;strokeColor=none;fillColor=none;" vertex="1" parent="1">
          <mxGeometry x="910" y="388" width="50" height="30" as="geometry" />
        </mxCell>
        <mxCell id="KiTWwbMZWOuyHS0gHmwx-43" value="" style="endArrow=classic;html=1;rounded=0;exitX=0.919;exitY=0.319;exitDx=0;exitDy=0;exitPerimeter=0;" edge="1" parent="1" source="KiTWwbMZWOuyHS0gHmwx-44" target="KiTWwbMZWOuyHS0gHmwx-36">
          <mxGeometry width="50" height="50" relative="1" as="geometry">
            <mxPoint x="740" y="480" as="sourcePoint" />
            <mxPoint x="790" y="430" as="targetPoint" />
          </mxGeometry>
        </mxCell>
        <mxCell id="KiTWwbMZWOuyHS0gHmwx-45" value="" style="endArrow=classic;html=1;rounded=0;exitX=0.919;exitY=0.319;exitDx=0;exitDy=0;exitPerimeter=0;" edge="1" parent="1" source="KiTWwbMZWOuyHS0gHmwx-4" target="KiTWwbMZWOuyHS0gHmwx-44">
          <mxGeometry width="50" height="50" relative="1" as="geometry">
            <mxPoint x="704" y="456" as="sourcePoint" />
            <mxPoint x="893" y="314" as="targetPoint" />
          </mxGeometry>
        </mxCell>
        <mxCell id="KiTWwbMZWOuyHS0gHmwx-44" value="takes place on" style="text;html=1;align=center;verticalAlign=middle;resizable=0;points=[];autosize=1;strokeColor=none;fillColor=none;" vertex="1" parent="1">
          <mxGeometry x="785" y="398" width="100" height="30" as="geometry" />
        </mxCell>
        <mxCell id="KiTWwbMZWOuyHS0gHmwx-46" value="name" style="text;html=1;align=center;verticalAlign=middle;resizable=0;points=[];autosize=1;strokeColor=none;fillColor=none;" vertex="1" parent="1">
          <mxGeometry x="875" y="220" width="50" height="30" as="geometry" />
        </mxCell>
        <mxCell id="KiTWwbMZWOuyHS0gHmwx-47" value="" style="endArrow=classic;html=1;rounded=0;exitX=0.956;exitY=0.775;exitDx=0;exitDy=0;exitPerimeter=0;entryX=0;entryY=0.5;entryDx=0;entryDy=0;" edge="1" parent="1" source="KiTWwbMZWOuyHS0gHmwx-48" target="KiTWwbMZWOuyHS0gHmwx-37">
          <mxGeometry width="50" height="50" relative="1" as="geometry">
            <mxPoint x="520" y="640" as="sourcePoint" />
            <mxPoint x="570" y="590" as="targetPoint" />
          </mxGeometry>
        </mxCell>
        <mxCell id="KiTWwbMZWOuyHS0gHmwx-49" value="" style="endArrow=classic;html=1;rounded=0;exitX=0.956;exitY=0.775;exitDx=0;exitDy=0;exitPerimeter=0;entryX=0;entryY=0.5;entryDx=0;entryDy=0;" edge="1" parent="1" source="KiTWwbMZWOuyHS0gHmwx-5" target="KiTWwbMZWOuyHS0gHmwx-48">
          <mxGeometry width="50" height="50" relative="1" as="geometry">
            <mxPoint x="526" y="452" as="sourcePoint" />
            <mxPoint x="875" y="625" as="targetPoint" />
          </mxGeometry>
        </mxCell>
        <mxCell id="KiTWwbMZWOuyHS0gHmwx-48" value="has&amp;nbsp;" style="text;html=1;align=center;verticalAlign=middle;resizable=0;points=[];autosize=1;strokeColor=none;fillColor=none;" vertex="1" parent="1">
          <mxGeometry x="620" y="560" width="50" height="30" as="geometry" />
        </mxCell>
        <mxCell id="KiTWwbMZWOuyHS0gHmwx-50" value="" style="endArrow=classic;html=1;rounded=0;exitX=1;exitY=0.5;exitDx=0;exitDy=0;entryX=0.344;entryY=-0.012;entryDx=0;entryDy=0;entryPerimeter=0;" edge="1" parent="1" source="KiTWwbMZWOuyHS0gHmwx-52" target="KiTWwbMZWOuyHS0gHmwx-35">
          <mxGeometry width="50" height="50" relative="1" as="geometry">
            <mxPoint x="990" y="460" as="sourcePoint" />
            <mxPoint x="1050" y="430" as="targetPoint" />
          </mxGeometry>
        </mxCell>
        <mxCell id="KiTWwbMZWOuyHS0gHmwx-51" value="" style="endArrow=classic;html=1;rounded=0;exitX=1;exitY=0.5;exitDx=0;exitDy=0;entryX=0.344;entryY=-0.012;entryDx=0;entryDy=0;entryPerimeter=0;" edge="1" parent="1" source="KiTWwbMZWOuyHS0gHmwx-34" target="KiTWwbMZWOuyHS0gHmwx-52">
          <mxGeometry width="50" height="50" relative="1" as="geometry">
            <mxPoint x="980" y="455" as="sourcePoint" />
            <mxPoint x="1088" y="529" as="targetPoint" />
          </mxGeometry>
        </mxCell>
        <mxCell id="KiTWwbMZWOuyHS0gHmwx-52" value="sells" style="text;html=1;align=center;verticalAlign=middle;whiteSpace=wrap;rounded=0;" vertex="1" parent="1">
          <mxGeometry x="1000" y="470" width="60" height="30" as="geometry" />
        </mxCell>
        <mxCell id="KiTWwbMZWOuyHS0gHmwx-53" value="name" style="text;html=1;align=center;verticalAlign=middle;resizable=0;points=[];autosize=1;strokeColor=none;fillColor=none;" vertex="1" parent="1">
          <mxGeometry x="1115" y="495" width="50" height="30" as="geometry" />
        </mxCell>
        <mxCell id="KiTWwbMZWOuyHS0gHmwx-55" value="type" style="text;html=1;align=center;verticalAlign=middle;resizable=0;points=[];autosize=1;strokeColor=none;fillColor=none;" vertex="1" parent="1">
          <mxGeometry x="1135" y="540" width="50" height="30" as="geometry" />
        </mxCell>
        <mxCell id="KiTWwbMZWOuyHS0gHmwx-56" value="damage" style="text;html=1;align=center;verticalAlign=middle;resizable=0;points=[];autosize=1;strokeColor=none;fillColor=none;" vertex="1" parent="1">
          <mxGeometry x="1135" y="570" width="70" height="30" as="geometry" />
        </mxCell>
        <mxCell id="KiTWwbMZWOuyHS0gHmwx-57" value="requirement" style="text;html=1;align=center;verticalAlign=middle;whiteSpace=wrap;rounded=0;" vertex="1" parent="1">
          <mxGeometry x="875" y="510" width="60" height="30" as="geometry" />
        </mxCell>
        <mxCell id="KiTWwbMZWOuyHS0gHmwx-58" value="reward" style="text;html=1;align=center;verticalAlign=middle;resizable=0;points=[];autosize=1;strokeColor=none;fillColor=none;" vertex="1" parent="1">
          <mxGeometry x="950" y="540" width="60" height="30" as="geometry" />
        </mxCell>
        <mxCell id="KiTWwbMZWOuyHS0gHmwx-59" value="" style="whiteSpace=wrap;html=1;fillColor=none;" vertex="1" parent="1">
          <mxGeometry x="785" y="220" width="445" height="420" as="geometry" />
        </mxCell>
        <mxCell id="KiTWwbMZWOuyHS0gHmwx-60" value="couldhave" style="text;html=1;align=center;verticalAlign=middle;whiteSpace=wrap;rounded=0;" vertex="1" parent="1">
          <mxGeometry x="785" y="190" width="60" height="30" as="geometry" />
        </mxCell>
      </root>
    </mxGraphModel>
  </diagram>
</mxfile>
